
<svg width="1232px" height="882px" viewBox="0 0 1232 882" version="1.1" xmlns="http://www.w3.org/2000/svg" xmlns:xlink="http://www.w3.org/1999/xlink">
    <!-- Generator: Sketch 50.2 (55047) - http://www.bohemiancoding.com/sketch -->
    <desc>Created with Sketch.</desc>
    <defs>
        <radialGradient cx="-19.7226345%" cy="-19.5779037%" fx="-19.7226345%" fy="-19.5779037%" r="208.354997%" gradientTransform="translate(-0.197226,-0.195779),scale(0.701671,1.000000),rotate(35.023632),translate(0.197226,0.195779)" id="radialGradient-1">
            <stop stop-color="#B6FBFF" offset="0%"></stop>
            <stop stop-color="#9EBAE2" offset="100%"></stop>
        </radialGradient>
        <circle id="path-2" cx="985.5" cy="133.5" r="48.5"></circle>
        <filter x="-457.7%" y="-457.7%" width="1015.5%" height="1015.5%" filterUnits="objectBoundingBox" id="filter-3">
            <feMorphology radius="12.5" operator="dilate" in="SourceAlpha" result="shadowSpreadOuter1"></feMorphology>
            <feOffset dx="0" dy="0" in="shadowSpreadOuter1" result="shadowOffsetOuter1"></feOffset>
            <feGaussianBlur stdDeviation="30" in="shadowOffsetOuter1" result="shadowBlurOuter1"></feGaussianBlur>
            <feColorMatrix values="0 0 0 0 1   0 0 0 0 1   0 0 0 0 1  0 0 0 0.570029438 0" type="matrix" in="shadowBlurOuter1" result="shadowMatrixOuter1"></feColorMatrix>
            <feMorphology radius="29.5" operator="dilate" in="SourceAlpha" result="shadowSpreadOuter2"></feMorphology>
            <feOffset dx="0" dy="0" in="shadowSpreadOuter2" result="shadowOffsetOuter2"></feOffset>
            <feGaussianBlur stdDeviation="30" in="shadowOffsetOuter2" result="shadowBlurOuter2"></feGaussianBlur>
            <feColorMatrix values="0 0 0 0 1   0 0 0 0 1   0 0 0 0 1  0 0 0 0.159618433 0" type="matrix" in="shadowBlurOuter2" result="shadowMatrixOuter2"></feColorMatrix>
            <feMorphology radius="50" operator="dilate" in="SourceAlpha" result="shadowSpreadOuter3"></feMorphology>
            <feOffset dx="0" dy="0" in="shadowSpreadOuter3" result="shadowOffsetOuter3"></feOffset>
            <feGaussianBlur stdDeviation="30" in="shadowOffsetOuter3" result="shadowBlurOuter3"></feGaussianBlur>
            <feColorMatrix values="0 0 0 0 1   0 0 0 0 1   0 0 0 0 1  0 0 0 0.118716033 0" type="matrix" in="shadowBlurOuter3" result="shadowMatrixOuter3"></feColorMatrix>
            <feMerge>
                <feMergeNode in="shadowMatrixOuter1"></feMergeNode>
                <feMergeNode in="shadowMatrixOuter2"></feMergeNode>
                <feMergeNode in="shadowMatrixOuter3"></feMergeNode>
            </feMerge>
        </filter>
        <linearGradient x1="50%" y1="0%" x2="50%" y2="100%" id="linearGradient-4">
            <stop stop-color="#FAFAFA" stop-opacity="0.364809783" offset="0%"></stop>
            <stop stop-color="#9FB7FF" stop-opacity="0.364809783" offset="100%"></stop>
        </linearGradient>
        <linearGradient x1="50%" y1="0%" x2="50%" y2="100%" id="linearGradient-5">
            <stop stop-color="#CDDCFF" stop-opacity="0.364809783" offset="0%"></stop>
            <stop stop-color="#9FB7FF" stop-opacity="0.364809783" offset="100%"></stop>
        </linearGradient>
        <linearGradient x1="2.63728324%" y1="46.7067689%" x2="100%" y2="46.7067689%" id="linearGradient-6">
            <stop stop-color="#FFFFFF" stop-opacity="0" offset="0%"></stop>
            <stop stop-color="#FFFFFF" stop-opacity="0.121886322" offset="49.0358562%"></stop>
            <stop stop-color="#FFFFFF" stop-opacity="0" offset="100%"></stop>
        </linearGradient>
        <linearGradient x1="50%" y1="0%" x2="50%" y2="200.960503%" id="linearGradient-7">
            <stop stop-color="#FAFAFA" stop-opacity="0.364809783" offset="0%"></stop>
            <stop stop-color="#9FB7FF" stop-opacity="0.137737772" offset="100%"></stop>
        </linearGradient>
        <linearGradient x1="50%" y1="0%" x2="50%" y2="100%" id="linearGradient-8">
            <stop stop-color="#FAFAFA" stop-opacity="0.074048913" offset="0%"></stop>
            <stop stop-color="#9FB7FF" stop-opacity="0.137737772" offset="100%"></stop>
        </linearGradient>
    </defs>
    <g id="Page-1" stroke="none" stroke-width="1" fill="none" fill-rule="evenodd">
        <g id="iPhone-X">
            <rect id="Rectangle" fill="url(#radialGradient-1)" x="-12" y="0" width="1257" height="882"></rect>
            <g id="Oval">
                <use fill="black" fill-opacity="1" filter="url(#filter-3)" xlink:href="#path-2"></use>
                <use fill="#FFFFFF" fill-rule="evenodd" xlink:href="#path-2"></use>
            </g>
            <path d="M0,587.791514 C97.4687923,580.597171 196.285653,577 296.450581,577 C396.61551,577 503.131983,580.597171 616,587.791514 C731.332427,593.97006 837.864322,597.059333 935.595685,597.059333 C1033.32705,597.059333 1132.12849,593.97006 1232,587.791514 L1232,882 L0,882 L0,587.791514 Z" id="Rectangle-4" fill-opacity="0.363564312" fill="#E7C5FB"></path>
            <path d="M-11,364.724501 C93.5,390.502149 198,403.390972 302.5,403.390972 C407,403.390972 511.5,390.502149 616,364.724501 C720.5,336.2415 825,322 929.5,322 C1034,322 1138.5,336.2415 1243,364.724501 L1243,588.166429 C1138.5,596.055476 1034,600 929.5,600 C825,600 720.5,596.055476 616,588.166429 C511.5,582.218048 407,579.243858 302.5,579.243858 C198,579.243858 93.5,582.218048 -11,588.166429 L-11,364.724501 Z" id="Rectangle-5" fill="url(#linearGradient-4)"></path>
            <path d="M-18,598.470652 C87.5833333,610.218187 193.166667,616.091955 298.75,616.091955 C404.333333,616.091955 509.916667,610.218187 615.5,598.470652 C721.083333,585.490217 826.666667,579 932.25,579 C1037.83333,579 1143.41667,585.490217 1249,598.470652 L1249,700.298873 C1130.14552,691.858807 1019.90788,687.638773 918.287071,687.638773 C816.666262,687.638773 715.737238,691.858807 615.5,700.298873 C509.916667,706.099624 404.333333,709 298.75,709 C193.166667,709 87.5833333,706.099624 -18,700.298873 L-18,598.470652 Z" id="Rectangle-5-Copy" fill="url(#linearGradient-5)" transform="translate(615.500000, 644.000000) scale(1, -1) translate(-615.500000, -644.000000) "></path>
            <path d="M196,588 C397.372999,595.83724 568.70186,599.755859 709.986582,599.755859 C851.271304,599.755859 1026.60911,595.83724 1236,588 L1236,882 L196,882 L196,588 Z" id="Rectangle-6" fill="url(#linearGradient-6)"></path>
            <path d="M-13,454.752367 C58.1082168,438.250789 125.012697,430 187.713441,430 C250.414185,430 311.259704,438.250789 370.25,454.752367 C443.112958,470.069102 510.696808,477.72747 573.00155,477.72747 C635.306291,477.72747 695.472441,470.069102 753.5,454.752367 C817.375,438.250789 881.25,430 945.125,430 C1009,430 1072.875,438.250789 1136.75,454.752367 C1218.27818,470.069102 1289.4407,477.72747 1350.23756,477.72747 C1411.03443,477.72747 1467.6219,470.069102 1520,454.752367 L1520,587.608399 C1370.20656,584.722331 1274.20656,584.722331 1232,587.608399 C1189.79344,590.494466 1072.23305,592.859375 879.318839,594.703125 C800.066421,596.901042 723.359049,598 649.196722,598 C575.034396,598 500.893412,594.536133 426.77377,587.608399 C343.143876,583.349723 263.4571,581.220385 187.713441,581.220385 C111.969782,581.220385 45.0653018,583.349723 -13,587.608399 L-13,454.752367 Z" id="Rectangle-7" fill="url(#linearGradient-7)"></path>
            <path d="M1,588.37694 C70.9485916,582.125647 136.762001,579 198.440228,579 C260.118454,579 319.971712,582.125647 378,588.37694 C449.674717,594.17938 516.156417,597.0806 577.445099,597.0806 C638.733781,597.0806 697.918748,594.17938 755,588.37694 C817.833333,582.125647 880.666667,579 943.5,579 C1006.33333,579 1069.16667,582.125647 1132,588.37694 C1212.19863,594.17938 1282.20064,597.0806 1342.00603,597.0806 C1401.81142,597.0806 1457.47608,594.17938 1509,588.37694 L1509,638.706797 L1232,638.706797 C973.716821,631.094974 809.555843,627.289062 739.517067,627.289062 C669.478291,627.289062 587.643916,631.094974 494.013942,638.706797 C367.341725,645.568932 268.817154,649 198.440228,649 C128.063302,649 62.2498925,645.568932 1,638.706797 L1,588.37694 Z" id="Rectangle-7-Copy" fill="url(#linearGradient-8)" transform="translate(755.000000, 614.000000) scale(1, -1) translate(-755.000000, -614.000000) "></path>
            <path d="M-10,77.5508228 C98.9559153,91.1836076 207.911831,98 316.867746,98 C480.301619,98 532.262299,93.1016457 643.735492,77.5508228 C755.208685,62 812.734278,62 975.477735,62 C1138.22119,62 1415.77575,93.1016457 1297.47098,77.5508228" id="Line-5" stroke-opacity="0.278617527" stroke="#FFFFFF" stroke-width="0.5" stroke-linecap="square"></path>
            <path d="M-10,81.5508228 C98.9559153,95.1836076 207.911831,102 316.867746,102 C480.301619,102 532.262299,97.1016457 643.735492,81.5508228 C755.208685,66 812.734278,66 975.477735,66 C1138.22119,66 1415.77575,97.1016457 1297.47098,81.5508228" id="Line-5-Copy" stroke-opacity="0.278617527" stroke="#FFFFFF" stroke-width="0.5" stroke-linecap="square"></path>
            <path d="M-10,86.4646792 C98.9935028,100.154893 207.987006,107 316.980508,107 C480.470762,107 530.397006,98.6163318 641.908655,83 C753.420303,67.3836682 806.759129,59 969.558728,59 C1132.35833,59 1416.26761,102.081011 1297.92203,86.4646792" id="Line-5-Copy-2" stroke-opacity="0.278617527" stroke="#FFFFFF" stroke-width="0.5" stroke-linecap="square"></path>
            <path d="M-10,59.5508228 L1297.47098,59.5508228 C1415.77575,75.1016457 1138.22119,44 975.477735,44 C812.734278,44 755.208685,44 643.735492,59.5508228 C532.262299,75.1016457 480.301619,80 316.867746,80 C207.911831,80 98.9559153,73.1836076 -10,59.5508228 Z" id="Line-5-Copy-3" stroke-opacity="0.278617527" stroke="#FFFFFF" stroke-width="0.5" stroke-linecap="square"></path>
            <path d="M-10,54.759768 L1297.47098,54.759768 C1415.77575,70.5195359 1138.22119,39 975.477735,39 C812.734278,39 757.74281,46.240232 646.269617,62 C534.796424,77.759768 478.608755,85 315.174882,85 C206.218967,85 97.8273396,74.9199227 -10,54.759768 Z" id="Line-5-Copy-4" stroke-opacity="0.278617527" stroke="#FFFFFF" stroke-width="0.5" stroke-linecap="square"></path>
        </g>
    </g>
</svg>