
<svg width="380px" height="882px" viewBox="0 0 380 882" version="1.1" xmlns="http://www.w3.org/2000/svg" xmlns:xlink="http://www.w3.org/1999/xlink">
    <!-- Generator: Sketch 50.2 (55047) - http://www.bohemiancoding.com/sketch -->
    <desc>Created with Sketch.</desc>
    <defs>
        <radialGradient cx="-19.7226345%" cy="-19.5779037%" fx="-19.7226345%" fy="-19.5779037%" r="225.182854%" gradientTransform="translate(-0.197226,-0.195779),scale(1.000000,0.626984),rotate(57.881741),translate(0.197226,0.195779)" id="radialGradient-1">
            <stop stop-color="#B6FBFF" offset="0%"></stop>
            <stop stop-color="#9EBAE2" offset="100%"></stop>
        </radialGradient>
        <circle id="path-2" cx="287.5" cy="138.5" r="38.5"></circle>
        <filter x="-272.7%" y="-272.7%" width="645.5%" height="645.5%" filterUnits="objectBoundingBox" id="filter-3">
            <feMorphology radius="20" operator="dilate" in="SourceAlpha" result="shadowSpreadOuter1"></feMorphology>
            <feOffset dx="0" dy="0" in="shadowSpreadOuter1" result="shadowOffsetOuter1"></feOffset>
            <feGaussianBlur stdDeviation="50" in="shadowOffsetOuter1" result="shadowBlurOuter1"></feGaussianBlur>
            <feColorMatrix values="0 0 0 0 1   0 0 0 0 1   0 0 0 0 1  0 0 0 0.5 0" type="matrix" in="shadowBlurOuter1"></feColorMatrix>
        </filter>
        <linearGradient x1="37.6995309%" y1="94.3870054%" x2="37.6995295%" y2="0%" id="linearGradient-4">
            <stop stop-color="#5D5D5D" offset="0%"></stop>
            <stop stop-color="#74748C" offset="100%"></stop>
        </linearGradient>
        <linearGradient x1="50%" y1="0%" x2="50%" y2="100%" id="linearGradient-5">
            <stop stop-color="#FAFAFA" stop-opacity="0.364809783" offset="0%"></stop>
            <stop stop-color="#9FB7FF" stop-opacity="0.364809783" offset="100%"></stop>
        </linearGradient>
        <linearGradient x1="50%" y1="0%" x2="50%" y2="100%" id="linearGradient-6">
            <stop stop-color="#CDDCFF" stop-opacity="0.364809783" offset="0%"></stop>
            <stop stop-color="#9FB7FF" stop-opacity="0.364809783" offset="100%"></stop>
        </linearGradient>
        <linearGradient x1="2.63728324%" y1="46.7067689%" x2="100%" y2="46.7067689%" id="linearGradient-7">
            <stop stop-color="#FFFFFF" stop-opacity="0" offset="0%"></stop>
            <stop stop-color="#FFFFFF" stop-opacity="0.121886322" offset="49.0358562%"></stop>
            <stop stop-color="#FFFFFF" stop-opacity="0" offset="100%"></stop>
        </linearGradient>
        <linearGradient x1="50%" y1="0%" x2="50%" y2="200.960503%" id="linearGradient-8">
            <stop stop-color="#FAFAFA" stop-opacity="0.364809783" offset="0%"></stop>
            <stop stop-color="#9FB7FF" stop-opacity="0.137737772" offset="100%"></stop>
        </linearGradient>
        <linearGradient x1="50%" y1="0%" x2="50%" y2="100%" id="linearGradient-9">
            <stop stop-color="#FAFAFA" stop-opacity="0.074048913" offset="0%"></stop>
            <stop stop-color="#9FB7FF" stop-opacity="0.137737772" offset="100%"></stop>
        </linearGradient>
    </defs>
    <g id="Page-1" stroke="none" stroke-width="1" fill="none" fill-rule="evenodd">
        <g id="iPhone-X">
            <rect id="Rectangle" fill="url(#radialGradient-1)" x="-87" y="0" width="553" height="882"></rect>
            <g id="Oval">
                <use fill="black" fill-opacity="1" filter="url(#filter-3)" xlink:href="#path-2"></use>
                <use fill="#FFFFFF" fill-rule="evenodd" xlink:href="#path-2"></use>
            </g>
            <path d="M317,193 C302.088312,193 290,180.911688 290,166 C290,151.088312 302.088312,139 317,139 C326.21109,139 334.344879,143.612476 339.217656,150.653717 C340.907677,150.2268 342.677353,150 344.5,150 C356.374122,150 366,159.625878 366,171.5 C366,183.374122 356.374122,193 344.5,193 C344.332881,193 344.166208,192.998093 344,192.9943 L344,193 L317,193 Z" id="Combined-Shape" fill="url(#linearGradient-4)" transform="translate(328.000000, 166.000000) scale(-1, 1) translate(-328.000000, -166.000000) "></path>
            <path d="M-82,587.791514 C-39.0409463,580.597171 4.51226416,577 48.6596313,577 C92.8069984,577 139.753788,580.597171 189.5,587.791514 C240.332393,593.97006 287.28598,597.059333 330.360761,597.059333 C373.435541,597.059333 416.981954,593.97006 461,587.791514 L461,882 L-82,882 L-82,587.791514 Z" id="Rectangle-4" fill-opacity="0.363564312" fill="#E7C5FB"></path>
            <path d="M-88,364.697786 C-41.8333333,390.459315 4.33333333,403.34008 50.5,403.34008 C96.6666667,403.34008 142.833333,390.459315 189,364.697786 C235.166667,336.232595 281.333333,322 327.5,322 C373.666667,322 419.833333,336.232595 466,364.697786 L466,588 L-88,588 L-88,364.697786 Z" id="Rectangle-5" fill="url(#linearGradient-5)"></path>
            <path d="M-87,607.422677 C-41,619.141268 5,625.000563 51,625.000563 C97,625.000563 143,619.141268 189,607.422677 C235,594.474226 281,588 327,588 C373,588 419,594.474226 465,607.422677 L465,709 L-87,709 L-87,607.422677 Z" id="Rectangle-5-Copy" fill="url(#linearGradient-6)" transform="translate(189.000000, 648.500000) scale(1, -1) translate(-189.000000, -648.500000) "></path>
            <path d="M118,588 C184.220736,595.83724 240.561573,599.755859 287.022511,599.755859 C333.483448,599.755859 391.142611,595.83724 460,588 L460,882 L118,882 L118,588 Z" id="Rectangle-6" fill="url(#linearGradient-7)"></path>
            <path d="M-88,454.752367 C-49.5004436,438.250789 -13.2768829,430 20.6706823,430 C54.6182475,430 87.5613534,438.250789 119.5,454.752367 C158.949612,470.069102 195.540999,477.72747 229.274159,477.72747 C263.00732,477.72747 295.5826,470.069102 327,454.752367 C361.583333,438.250789 396.166667,430 430.75,430 C465.333333,430 499.916667,438.250789 534.5,454.752367 C578.641154,470.069102 617.170111,477.72747 650.086873,477.72747 C683.003635,477.72747 713.641344,470.069102 742,454.752367 L742,587.608399 C578.184896,584.722331 484.851562,584.722331 462,587.608399 C439.148438,590.494466 416.855469,592.859375 395.121094,594.703125 C352.212087,596.901042 310.681024,598 270.527906,598 C230.374787,598 190.233224,594.536133 150.103215,587.608399 C104.824147,583.349723 61.6799692,581.220385 20.6706823,581.220385 C-20.3386046,581.220385 -56.5621654,583.349723 -88,587.608399 L-88,454.752367 Z" id="Rectangle-7" fill="url(#linearGradient-8)"></path>
            <path d="M-79,587.37694 C-41.2889888,581.125647 -5.80735634,578 27.4448972,578 C60.6971508,578 92.9655184,581.125647 124.25,587.37694 C162.891608,593.17938 198.733532,596.0806 231.775773,596.0806 C264.818013,596.0806 296.726089,593.17938 327.5,587.37694 C361.375,581.125647 395.25,578 429.125,578 C463,578 496.875,581.125647 530.75,587.37694 C573.987058,593.17938 611.726868,596.0806 643.969431,596.0806 C676.211995,596.0806 706.222184,593.17938 734,587.37694 L734,637.706797 L390.309624,637.706797 C352.125741,630.054272 314.153983,626.22801 276.394351,626.22801 C238.634719,626.22801 201.087213,630.054272 163.751833,637.706797 C110.822479,644.568932 65.3868341,648 27.4448972,648 C-10.4970396,648 -45.978672,644.568932 -79,637.706797 L-79,587.37694 Z" id="Rectangle-7-Copy" fill="url(#linearGradient-9)" transform="translate(327.500000, 613.000000) scale(1, -1) translate(-327.500000, -613.000000) "></path>
        </g>
    </g>
</svg>