
<svg width="545px" height="812px" viewBox="0 0 545 812" version="1.1" xmlns="http://www.w3.org/2000/svg" xmlns:xlink="http://www.w3.org/1999/xlink">
    <!-- Generator: Sketch 50.2 (55047) - http://www.bohemiancoding.com/sketch -->
    <desc>Created with Sketch.</desc>
    <defs>
        <radialGradient cx="-19.7226345%" cy="-19.5779037%" fx="-19.7226345%" fy="-19.5779037%" r="212.515433%" gradientTransform="translate(-0.197226,-0.195779),scale(1.000000,0.681034),rotate(55.711535),translate(0.197226,0.195779)" id="radialGradient-1">
            <stop stop-color="#B6FBFF" offset="0%"></stop>
            <stop stop-color="#9EBAE2" offset="100%"></stop>
        </radialGradient>
        <circle id="path-2" cx="370.5" cy="68.5" r="38.5"></circle>
        <filter x="-146.1%" y="-146.1%" width="392.2%" height="392.2%" filterUnits="objectBoundingBox" id="filter-3">
            <feMorphology radius="12.5" operator="dilate" in="SourceAlpha" result="shadowSpreadOuter1"></feMorphology>
            <feOffset dx="0" dy="0" in="shadowSpreadOuter1" result="shadowOffsetOuter1"></feOffset>
            <feGaussianBlur stdDeviation="25" in="shadowOffsetOuter1" result="shadowBlurOuter1"></feGaussianBlur>
            <feColorMatrix values="0 0 0 0 1   0 0 0 0 1   0 0 0 0 1  0 0 0 0.5 0" type="matrix" in="shadowBlurOuter1"></feColorMatrix>
        </filter>
        <linearGradient x1="35.9092311%" y1="100%" x2="70.2482525%" y2="-7.66059028%" id="linearGradient-4">
            <stop stop-color="#767373" offset="0%"></stop>
            <stop stop-color="#7676A5" offset="100%"></stop>
        </linearGradient>
        <linearGradient x1="50%" y1="0%" x2="50%" y2="100%" id="linearGradient-5">
            <stop stop-color="#FAFAFA" stop-opacity="0.364809783" offset="0%"></stop>
            <stop stop-color="#9FB7FF" stop-opacity="0.364809783" offset="100%"></stop>
        </linearGradient>
        <linearGradient x1="50%" y1="0%" x2="50%" y2="100%" id="linearGradient-6">
            <stop stop-color="#CDDCFF" stop-opacity="0.364809783" offset="0%"></stop>
            <stop stop-color="#9FB7FF" stop-opacity="0.364809783" offset="100%"></stop>
        </linearGradient>
        <linearGradient x1="2.63728324%" y1="46.7067689%" x2="100%" y2="46.7067689%" id="linearGradient-7">
            <stop stop-color="#FFFFFF" stop-opacity="0" offset="0%"></stop>
            <stop stop-color="#FFFFFF" stop-opacity="0.121886322" offset="49.0358562%"></stop>
            <stop stop-color="#FFFFFF" stop-opacity="0" offset="100%"></stop>
        </linearGradient>
        <linearGradient x1="50%" y1="0%" x2="50%" y2="200.960503%" id="linearGradient-8">
            <stop stop-color="#FAFAFA" stop-opacity="0.364809783" offset="0%"></stop>
            <stop stop-color="#9FB7FF" stop-opacity="0.137737772" offset="100%"></stop>
        </linearGradient>
        <linearGradient x1="50%" y1="0%" x2="50%" y2="100%" id="linearGradient-9">
            <stop stop-color="#FAFAFA" stop-opacity="0.074048913" offset="0%"></stop>
            <stop stop-color="#9FB7FF" stop-opacity="0.137737772" offset="100%"></stop>
        </linearGradient>
    </defs>
    <g id="Page-1" stroke="none" stroke-width="1" fill="none" fill-rule="evenodd">
        <g id="iPhone-X">
            <rect id="Rectangle" fill="url(#radialGradient-1)" x="-4" y="0" width="553" height="812"></rect>
            <g id="Oval">
                <use fill="black" fill-opacity="1" filter="url(#filter-3)" xlink:href="#path-2"></use>
                <use fill="#FFFFFF" fill-rule="evenodd" xlink:href="#path-2"></use>
            </g>
            <path d="M400,123 C385.088312,123 373,110.911688 373,96 C373,81.0883118 385.088312,69 400,69 C409.21109,69 417.344879,73.6124759 422.217656,80.6537171 C423.907677,80.2267997 425.677353,80 427.5,80 C439.374122,80 449,89.6258779 449,101.5 C449,113.374122 439.374122,123 427.5,123 C427.332881,123 427.166208,122.998093 427,122.9943 L427,123 L400,123 Z" id="Combined-Shape" fill="url(#linearGradient-4)" transform="translate(411.000000, 96.000000) scale(-1, 1) translate(-411.000000, -96.000000) "></path>
            <path d="M1,517.791514 C43.9590537,510.597171 87.5122642,507 131.659631,507 C175.806998,507 222.753788,510.597171 272.5,517.791514 C323.332393,523.97006 370.28598,527.059333 413.360761,527.059333 C456.435541,527.059333 499.981954,523.97006 544,517.791514 L544,812 L1,812 L1,517.791514 Z" id="Rectangle-4" fill-opacity="0.363564312" fill="#E7C5FB"></path>
            <path d="M-5,294.697786 C41.1666667,320.459315 87.3333333,333.34008 133.5,333.34008 C179.666667,333.34008 225.833333,320.459315 272,294.697786 C318.166667,266.232595 364.333333,252 410.5,252 C456.666667,252 502.833333,266.232595 549,294.697786 L549,518 L-5,518 L-5,294.697786 Z" id="Rectangle-5" fill="url(#linearGradient-5)"></path>
            <path d="M-4,537.422677 C42,549.141268 88,555.000563 134,555.000563 C180,555.000563 226,549.141268 272,537.422677 C318,524.474226 364,518 410,518 C456,518 502,524.474226 548,537.422677 L548,639 L-4,639 L-4,537.422677 Z" id="Rectangle-5-Copy" fill="url(#linearGradient-6)" transform="translate(272.000000, 578.500000) scale(1, -1) translate(-272.000000, -578.500000) "></path>
            <path d="M201,518 C267.220736,525.83724 323.561573,529.755859 370.022511,529.755859 C416.483448,529.755859 474.142611,525.83724 543,518 L543,812 L201,812 L201,518 Z" id="Rectangle-6" fill="url(#linearGradient-7)"></path>
            <path d="M-5,384.752367 C33.4995564,368.250789 69.7231171,360 103.670682,360 C137.618247,360 170.561353,368.250789 202.5,384.752367 C241.949612,400.069102 278.540999,407.72747 312.274159,407.72747 C346.00732,407.72747 378.5826,400.069102 410,384.752367 C444.583333,368.250789 479.166667,360 513.75,360 C548.333333,360 582.916667,368.250789 617.5,384.752367 C661.641154,400.069102 700.170111,407.72747 733.086873,407.72747 C766.003635,407.72747 796.641344,400.069102 825,384.752367 L825,517.608399 C661.184896,514.722331 567.851562,514.722331 545,517.608399 C522.148438,520.494466 499.855469,522.859375 478.121094,524.703125 C435.212087,526.901042 393.681024,528 353.527906,528 C313.374787,528 273.233224,524.536133 233.103215,517.608399 C187.824147,513.349723 144.679969,511.220385 103.670682,511.220385 C62.6613954,511.220385 26.4378346,513.349723 -5,517.608399 L-5,384.752367 Z" id="Rectangle-7" fill="url(#linearGradient-8)"></path>
            <path d="M4,517.37694 C41.7110112,511.125647 77.1926437,508 110.444897,508 C143.697151,508 175.965518,511.125647 207.25,517.37694 C245.891608,523.17938 281.733532,526.0806 314.775773,526.0806 C347.818013,526.0806 379.726089,523.17938 410.5,517.37694 C444.375,511.125647 478.25,508 512.125,508 C546,508 579.875,511.125647 613.75,517.37694 C656.987058,523.17938 694.726868,526.0806 726.969431,526.0806 C759.211995,526.0806 789.222184,523.17938 817,517.37694 L817,567.706797 L473.309624,567.706797 C435.125741,560.054272 397.153983,556.22801 359.394351,556.22801 C321.634719,556.22801 284.087213,560.054272 246.751833,567.706797 C193.822479,574.568932 148.386834,578 110.444897,578 C72.5029604,578 37.021328,574.568932 4,567.706797 L4,517.37694 Z" id="Rectangle-7-Copy" fill="url(#linearGradient-9)" transform="translate(410.500000, 543.000000) scale(1, -1) translate(-410.500000, -543.000000) "></path>
        </g>
    </g>
</svg>