<svg width="150" height="19" viewBox="0 0 150 19" version="1.1" xmlns="http://www.w3.org/2000/svg" xmlns:xlink="http://www.w3.org/1999/xlink">
<g id="Canvas" fill="none">
<g id="CONTACT US">
<path d="M 0.744 14.36C 0.744 13.32 0.928 12.296 1.296 11.288C 1.68 10.264 2.232 9.352 2.952 8.552C 3.672 7.752 4.552 7.104 5.592 6.608C 6.632 6.112 7.816 5.864 9.144 5.864C 10.712 5.864 12.064 6.208 13.2 6.896C 14.352 7.584 15.208 8.48 15.768 9.584L 13.224 11.336C 13 10.856 12.728 10.456 12.408 10.136C 12.088 9.8 11.744 9.536 11.376 9.344C 11.008 9.152 10.624 9.016 10.224 8.936C 9.824 8.84 9.432 8.792 9.048 8.792C 8.216 8.792 7.488 8.96 6.864 9.296C 6.256 9.632 5.744 10.072 5.328 10.616C 4.928 11.144 4.624 11.752 4.416 12.44C 4.208 13.112 4.104 13.784 4.104 14.456C 4.104 15.208 4.224 15.936 4.464 16.64C 4.704 17.328 5.04 17.936 5.472 18.464C 5.92 18.992 6.448 19.416 7.056 19.736C 7.68 20.056 8.36 20.216 9.096 20.216C 9.48 20.216 9.88 20.168 10.296 20.072C 10.712 19.976 11.104 19.824 11.472 19.616C 11.856 19.408 12.208 19.144 12.528 18.824C 12.848 18.488 13.104 18.088 13.296 17.624L 16.008 19.184C 15.736 19.824 15.344 20.392 14.832 20.888C 14.336 21.368 13.768 21.776 13.128 22.112C 12.504 22.448 11.832 22.704 11.112 22.88C 10.392 23.056 9.688 23.144 9 23.144C 7.784 23.144 6.672 22.888 5.664 22.376C 4.656 21.864 3.784 21.2 3.048 20.384C 2.328 19.552 1.76 18.616 1.344 17.576C 0.944 16.52 0.744 15.448 0.744 14.36ZM 25.3371 23.12C 24.0891 23.12 22.9531 22.88 21.9291 22.4C 20.9211 21.904 20.0491 21.256 19.3131 20.456C 18.5931 19.64 18.0331 18.712 17.6331 17.672C 17.2331 16.632 17.0331 15.568 17.0331 14.48C 17.0331 13.344 17.2411 12.256 17.6571 11.216C 18.0891 10.176 18.6731 9.256 19.4091 8.456C 20.1611 7.656 21.0491 7.024 22.0731 6.56C 23.0971 6.08 24.2091 5.84 25.4091 5.84C 26.6411 5.84 27.7611 6.096 28.7691 6.608C 29.7931 7.104 30.6651 7.76 31.3851 8.576C 32.1051 9.392 32.6651 10.32 33.0651 11.36C 33.4651 12.4 33.6651 13.456 33.6651 14.528C 33.6651 15.664 33.4571 16.752 33.0411 17.792C 32.6251 18.816 32.0491 19.728 31.3131 20.528C 30.5771 21.312 29.6971 21.944 28.6731 22.424C 27.6491 22.888 26.5371 23.12 25.3371 23.12ZM 20.3931 14.48C 20.3931 15.216 20.5051 15.928 20.7291 16.616C 20.9531 17.304 21.2731 17.912 21.6891 18.44C 22.1211 18.968 22.6411 19.392 23.2491 19.712C 23.8731 20.032 24.5771 20.192 25.3611 20.192C 26.1611 20.192 26.8651 20.032 27.4731 19.712C 28.0971 19.376 28.6171 18.936 29.0331 18.392C 29.4651 17.848 29.7851 17.24 29.9931 16.568C 30.2171 15.88 30.3291 15.184 30.3291 14.48C 30.3291 13.744 30.2091 13.032 29.9691 12.344C 29.7451 11.656 29.4171 11.048 28.9851 10.52C 28.5691 9.992 28.0491 9.576 27.4251 9.272C 26.8171 8.952 26.1291 8.792 25.3611 8.792C 24.5611 8.792 23.8491 8.96 23.2251 9.296C 22.6011 9.616 22.0811 10.048 21.6651 10.592C 21.2491 11.12 20.9291 11.728 20.7051 12.416C 20.4971 13.088 20.3931 13.776 20.3931 14.48ZM 39.5177 12.08L 39.5177 23L 36.2057 23L 36.2057 5.96L 38.7737 5.96L 47.6537 17.144L 47.6537 5.984L 50.9657 5.984L 50.9657 23L 48.2777 23L 39.5177 12.08ZM 67.2544 8.864L 61.8064 8.864L 61.8064 23L 58.5184 23L 58.5184 8.864L 53.0704 8.864L 53.0704 5.96L 67.2544 5.96L 67.2544 8.864ZM 72.5302 5.96L 75.4583 5.96L 81.9382 23L 78.5303 23L 76.9463 18.752L 70.9942 18.752L 69.4342 23L 66.0262 23L 72.5302 5.96ZM 76.3463 16.424L 73.9943 9.728L 71.5462 16.424L 76.3463 16.424ZM 82.1424 14.36C 82.1424 13.32 82.3264 12.296 82.6944 11.288C 83.0784 10.264 83.6304 9.352 84.3504 8.552C 85.0704 7.752 85.9504 7.104 86.9904 6.608C 88.0304 6.112 89.2144 5.864 90.5424 5.864C 92.1104 5.864 93.4624 6.208 94.5984 6.896C 95.7504 7.584 96.6064 8.48 97.1664 9.584L 94.6224 11.336C 94.3984 10.856 94.1264 10.456 93.8064 10.136C 93.4864 9.8 93.1424 9.536 92.7744 9.344C 92.4064 9.152 92.0224 9.016 91.6224 8.936C 91.2224 8.84 90.8304 8.792 90.4464 8.792C 89.6144 8.792 88.8864 8.96 88.2624 9.296C 87.6544 9.632 87.1424 10.072 86.7264 10.616C 86.3264 11.144 86.0224 11.752 85.8144 12.44C 85.6064 13.112 85.5024 13.784 85.5024 14.456C 85.5024 15.208 85.6224 15.936 85.8624 16.64C 86.1024 17.328 86.4384 17.936 86.8704 18.464C 87.3184 18.992 87.8464 19.416 88.4544 19.736C 89.0784 20.056 89.7584 20.216 90.4944 20.216C 90.8784 20.216 91.2784 20.168 91.6944 20.072C 92.1104 19.976 92.5024 19.824 92.8704 19.616C 93.2544 19.408 93.6064 19.144 93.9264 18.824C 94.2464 18.488 94.5024 18.088 94.6944 17.624L 97.4064 19.184C 97.1344 19.824 96.7424 20.392 96.2304 20.888C 95.7344 21.368 95.1664 21.776 94.5264 22.112C 93.9024 22.448 93.2304 22.704 92.5104 22.88C 91.7904 23.056 91.0864 23.144 90.3984 23.144C 89.1824 23.144 88.0704 22.888 87.0624 22.376C 86.0544 21.864 85.1824 21.2 84.4464 20.384C 83.7264 19.552 83.1584 18.616 82.7424 17.576C 82.3424 16.52 82.1424 15.448 82.1424 14.36ZM 112.208 8.864L 106.759 8.864L 106.759 23L 103.471 23L 103.471 8.864L 98.0235 8.864L 98.0235 5.96L 112.208 5.96L 112.208 8.864ZM 126.609 20.192C 127.393 20.192 128.049 20.032 128.577 19.712C 129.121 19.392 129.553 18.976 129.873 18.464C 130.209 17.952 130.441 17.368 130.569 16.712C 130.713 16.04 130.785 15.352 130.785 14.648L 130.785 5.96L 134.073 5.96L 134.073 14.648C 134.073 15.816 133.929 16.912 133.641 17.936C 133.369 18.96 132.929 19.856 132.321 20.624C 131.729 21.392 130.961 22 130.017 22.448C 129.073 22.896 127.945 23.12 126.633 23.12C 125.273 23.12 124.113 22.888 123.153 22.424C 122.209 21.944 121.441 21.32 120.849 20.552C 120.257 19.768 119.825 18.864 119.553 17.84C 119.297 16.816 119.169 15.752 119.169 14.648L 119.169 5.96L 122.481 5.96L 122.481 14.648C 122.481 15.368 122.545 16.064 122.673 16.736C 122.817 17.392 123.049 17.976 123.369 18.488C 123.705 19 124.137 19.416 124.665 19.736C 125.193 20.04 125.841 20.192 126.609 20.192ZM 147.561 10.424C 147.449 10.312 147.241 10.16 146.937 9.968C 146.649 9.776 146.289 9.592 145.857 9.416C 145.441 9.224 144.985 9.064 144.489 8.936C 143.993 8.808 143.489 8.744 142.977 8.744C 142.065 8.744 141.385 8.912 140.937 9.248C 140.489 9.584 140.265 10.056 140.265 10.664C 140.265 11.016 140.345 11.312 140.505 11.552C 140.681 11.776 140.929 11.976 141.249 12.152C 141.569 12.328 141.969 12.488 142.449 12.632C 142.945 12.776 143.513 12.928 144.153 13.088C 144.985 13.312 145.737 13.552 146.409 13.808C 147.097 14.064 147.673 14.384 148.137 14.768C 148.617 15.152 148.985 15.616 149.241 16.16C 149.497 16.688 149.625 17.344 149.625 18.128C 149.625 19.04 149.449 19.824 149.097 20.48C 148.761 21.12 148.297 21.64 147.705 22.04C 147.129 22.44 146.457 22.736 145.689 22.928C 144.937 23.104 144.145 23.192 143.313 23.192C 142.033 23.192 140.769 23 139.521 22.616C 138.273 22.232 137.153 21.688 136.161 20.984L 137.625 18.128C 137.769 18.272 138.025 18.464 138.393 18.704C 138.777 18.928 139.225 19.16 139.737 19.4C 140.249 19.624 140.817 19.816 141.441 19.976C 142.065 20.136 142.705 20.216 143.361 20.216C 145.185 20.216 146.097 19.632 146.097 18.464C 146.097 18.096 145.993 17.784 145.785 17.528C 145.577 17.272 145.281 17.048 144.897 16.856C 144.513 16.664 144.049 16.488 143.505 16.328C 142.961 16.168 142.353 15.992 141.681 15.8C 140.865 15.576 140.153 15.336 139.545 15.08C 138.953 14.808 138.457 14.496 138.057 14.144C 137.657 13.776 137.353 13.36 137.145 12.896C 136.953 12.416 136.857 11.848 136.857 11.192C 136.857 10.328 137.017 9.56 137.337 8.888C 137.657 8.216 138.097 7.656 138.657 7.208C 139.233 6.76 139.897 6.424 140.649 6.2C 141.401 5.96 142.209 5.84 143.073 5.84C 144.273 5.84 145.377 6.032 146.385 6.416C 147.393 6.784 148.273 7.224 149.025 7.736L 147.561 10.424Z" transform="translate(0 -5)" fill="url(#paint0_linear)"/>
<path d="M 0.744 14.36C 0.744 13.32 0.928 12.296 1.296 11.288C 1.68 10.264 2.232 9.352 2.952 8.552C 3.672 7.752 4.552 7.104 5.592 6.608C 6.632 6.112 7.816 5.864 9.144 5.864C 10.712 5.864 12.064 6.208 13.2 6.896C 14.352 7.584 15.208 8.48 15.768 9.584L 13.224 11.336C 13 10.856 12.728 10.456 12.408 10.136C 12.088 9.8 11.744 9.536 11.376 9.344C 11.008 9.152 10.624 9.016 10.224 8.936C 9.824 8.84 9.432 8.792 9.048 8.792C 8.216 8.792 7.488 8.96 6.864 9.296C 6.256 9.632 5.744 10.072 5.328 10.616C 4.928 11.144 4.624 11.752 4.416 12.44C 4.208 13.112 4.104 13.784 4.104 14.456C 4.104 15.208 4.224 15.936 4.464 16.64C 4.704 17.328 5.04 17.936 5.472 18.464C 5.92 18.992 6.448 19.416 7.056 19.736C 7.68 20.056 8.36 20.216 9.096 20.216C 9.48 20.216 9.88 20.168 10.296 20.072C 10.712 19.976 11.104 19.824 11.472 19.616C 11.856 19.408 12.208 19.144 12.528 18.824C 12.848 18.488 13.104 18.088 13.296 17.624L 16.008 19.184C 15.736 19.824 15.344 20.392 14.832 20.888C 14.336 21.368 13.768 21.776 13.128 22.112C 12.504 22.448 11.832 22.704 11.112 22.88C 10.392 23.056 9.688 23.144 9 23.144C 7.784 23.144 6.672 22.888 5.664 22.376C 4.656 21.864 3.784 21.2 3.048 20.384C 2.328 19.552 1.76 18.616 1.344 17.576C 0.944 16.52 0.744 15.448 0.744 14.36ZM 25.3371 23.12C 24.0891 23.12 22.9531 22.88 21.9291 22.4C 20.9211 21.904 20.0491 21.256 19.3131 20.456C 18.5931 19.64 18.0331 18.712 17.6331 17.672C 17.2331 16.632 17.0331 15.568 17.0331 14.48C 17.0331 13.344 17.2411 12.256 17.6571 11.216C 18.0891 10.176 18.6731 9.256 19.4091 8.456C 20.1611 7.656 21.0491 7.024 22.0731 6.56C 23.0971 6.08 24.2091 5.84 25.4091 5.84C 26.6411 5.84 27.7611 6.096 28.7691 6.608C 29.7931 7.104 30.6651 7.76 31.3851 8.576C 32.1051 9.392 32.6651 10.32 33.0651 11.36C 33.4651 12.4 33.6651 13.456 33.6651 14.528C 33.6651 15.664 33.4571 16.752 33.0411 17.792C 32.6251 18.816 32.0491 19.728 31.3131 20.528C 30.5771 21.312 29.6971 21.944 28.6731 22.424C 27.6491 22.888 26.5371 23.12 25.3371 23.12ZM 20.3931 14.48C 20.3931 15.216 20.5051 15.928 20.7291 16.616C 20.9531 17.304 21.2731 17.912 21.6891 18.44C 22.1211 18.968 22.6411 19.392 23.2491 19.712C 23.8731 20.032 24.5771 20.192 25.3611 20.192C 26.1611 20.192 26.8651 20.032 27.4731 19.712C 28.0971 19.376 28.6171 18.936 29.0331 18.392C 29.4651 17.848 29.7851 17.24 29.9931 16.568C 30.2171 15.88 30.3291 15.184 30.3291 14.48C 30.3291 13.744 30.2091 13.032 29.9691 12.344C 29.7451 11.656 29.4171 11.048 28.9851 10.52C 28.5691 9.992 28.0491 9.576 27.4251 9.272C 26.8171 8.952 26.1291 8.792 25.3611 8.792C 24.5611 8.792 23.8491 8.96 23.2251 9.296C 22.6011 9.616 22.0811 10.048 21.6651 10.592C 21.2491 11.12 20.9291 11.728 20.7051 12.416C 20.4971 13.088 20.3931 13.776 20.3931 14.48ZM 39.5177 12.08L 39.5177 23L 36.2057 23L 36.2057 5.96L 38.7737 5.96L 47.6537 17.144L 47.6537 5.984L 50.9657 5.984L 50.9657 23L 48.2777 23L 39.5177 12.08ZM 67.2544 8.864L 61.8064 8.864L 61.8064 23L 58.5184 23L 58.5184 8.864L 53.0704 8.864L 53.0704 5.96L 67.2544 5.96L 67.2544 8.864ZM 72.5302 5.96L 75.4583 5.96L 81.9382 23L 78.5303 23L 76.9463 18.752L 70.9942 18.752L 69.4342 23L 66.0262 23L 72.5302 5.96ZM 76.3463 16.424L 73.9943 9.728L 71.5462 16.424L 76.3463 16.424ZM 82.1424 14.36C 82.1424 13.32 82.3264 12.296 82.6944 11.288C 83.0784 10.264 83.6304 9.352 84.3504 8.552C 85.0704 7.752 85.9504 7.104 86.9904 6.608C 88.0304 6.112 89.2144 5.864 90.5424 5.864C 92.1104 5.864 93.4624 6.208 94.5984 6.896C 95.7504 7.584 96.6064 8.48 97.1664 9.584L 94.6224 11.336C 94.3984 10.856 94.1264 10.456 93.8064 10.136C 93.4864 9.8 93.1424 9.536 92.7744 9.344C 92.4064 9.152 92.0224 9.016 91.6224 8.936C 91.2224 8.84 90.8304 8.792 90.4464 8.792C 89.6144 8.792 88.8864 8.96 88.2624 9.296C 87.6544 9.632 87.1424 10.072 86.7264 10.616C 86.3264 11.144 86.0224 11.752 85.8144 12.44C 85.6064 13.112 85.5024 13.784 85.5024 14.456C 85.5024 15.208 85.6224 15.936 85.8624 16.64C 86.1024 17.328 86.4384 17.936 86.8704 18.464C 87.3184 18.992 87.8464 19.416 88.4544 19.736C 89.0784 20.056 89.7584 20.216 90.4944 20.216C 90.8784 20.216 91.2784 20.168 91.6944 20.072C 92.1104 19.976 92.5024 19.824 92.8704 19.616C 93.2544 19.408 93.6064 19.144 93.9264 18.824C 94.2464 18.488 94.5024 18.088 94.6944 17.624L 97.4064 19.184C 97.1344 19.824 96.7424 20.392 96.2304 20.888C 95.7344 21.368 95.1664 21.776 94.5264 22.112C 93.9024 22.448 93.2304 22.704 92.5104 22.88C 91.7904 23.056 91.0864 23.144 90.3984 23.144C 89.1824 23.144 88.0704 22.888 87.0624 22.376C 86.0544 21.864 85.1824 21.2 84.4464 20.384C 83.7264 19.552 83.1584 18.616 82.7424 17.576C 82.3424 16.52 82.1424 15.448 82.1424 14.36ZM 112.208 8.864L 106.759 8.864L 106.759 23L 103.471 23L 103.471 8.864L 98.0235 8.864L 98.0235 5.96L 112.208 5.96L 112.208 8.864ZM 126.609 20.192C 127.393 20.192 128.049 20.032 128.577 19.712C 129.121 19.392 129.553 18.976 129.873 18.464C 130.209 17.952 130.441 17.368 130.569 16.712C 130.713 16.04 130.785 15.352 130.785 14.648L 130.785 5.96L 134.073 5.96L 134.073 14.648C 134.073 15.816 133.929 16.912 133.641 17.936C 133.369 18.96 132.929 19.856 132.321 20.624C 131.729 21.392 130.961 22 130.017 22.448C 129.073 22.896 127.945 23.12 126.633 23.12C 125.273 23.12 124.113 22.888 123.153 22.424C 122.209 21.944 121.441 21.32 120.849 20.552C 120.257 19.768 119.825 18.864 119.553 17.84C 119.297 16.816 119.169 15.752 119.169 14.648L 119.169 5.96L 122.481 5.96L 122.481 14.648C 122.481 15.368 122.545 16.064 122.673 16.736C 122.817 17.392 123.049 17.976 123.369 18.488C 123.705 19 124.137 19.416 124.665 19.736C 125.193 20.04 125.841 20.192 126.609 20.192ZM 147.561 10.424C 147.449 10.312 147.241 10.16 146.937 9.968C 146.649 9.776 146.289 9.592 145.857 9.416C 145.441 9.224 144.985 9.064 144.489 8.936C 143.993 8.808 143.489 8.744 142.977 8.744C 142.065 8.744 141.385 8.912 140.937 9.248C 140.489 9.584 140.265 10.056 140.265 10.664C 140.265 11.016 140.345 11.312 140.505 11.552C 140.681 11.776 140.929 11.976 141.249 12.152C 141.569 12.328 141.969 12.488 142.449 12.632C 142.945 12.776 143.513 12.928 144.153 13.088C 144.985 13.312 145.737 13.552 146.409 13.808C 147.097 14.064 147.673 14.384 148.137 14.768C 148.617 15.152 148.985 15.616 149.241 16.16C 149.497 16.688 149.625 17.344 149.625 18.128C 149.625 19.04 149.449 19.824 149.097 20.48C 148.761 21.12 148.297 21.64 147.705 22.04C 147.129 22.44 146.457 22.736 145.689 22.928C 144.937 23.104 144.145 23.192 143.313 23.192C 142.033 23.192 140.769 23 139.521 22.616C 138.273 22.232 137.153 21.688 136.161 20.984L 137.625 18.128C 137.769 18.272 138.025 18.464 138.393 18.704C 138.777 18.928 139.225 19.16 139.737 19.4C 140.249 19.624 140.817 19.816 141.441 19.976C 142.065 20.136 142.705 20.216 143.361 20.216C 145.185 20.216 146.097 19.632 146.097 18.464C 146.097 18.096 145.993 17.784 145.785 17.528C 145.577 17.272 145.281 17.048 144.897 16.856C 144.513 16.664 144.049 16.488 143.505 16.328C 142.961 16.168 142.353 15.992 141.681 15.8C 140.865 15.576 140.153 15.336 139.545 15.08C 138.953 14.808 138.457 14.496 138.057 14.144C 137.657 13.776 137.353 13.36 137.145 12.896C 136.953 12.416 136.857 11.848 136.857 11.192C 136.857 10.328 137.017 9.56 137.337 8.888C 137.657 8.216 138.097 7.656 138.657 7.208C 139.233 6.76 139.897 6.424 140.649 6.2C 141.401 5.96 142.209 5.84 143.073 5.84C 144.273 5.84 145.377 6.032 146.385 6.416C 147.393 6.784 148.273 7.224 149.025 7.736L 147.561 10.424Z" transform="translate(0 -5)" fill="url(#paint1_linear)"/>
</g>
</g>
<defs>

<linearGradient id="paint0_linear" x2="1" gradientUnits="userSpaceOnUse" gradientTransform="matrix(0 29 -151 0 151 0)">
<stop stop-color="#EB5757"/>
<stop offset="1" stop-color="#F2C94C"/>
</linearGradient>
<linearGradient id="paint1_linear" x2="1" gradientUnits="userSpaceOnUse" gradientTransform="matrix(-239 3.8583e-05 -0.000194995 -1244.45 239 645.224)">
<stop stop-color="#56CCF2"/>
<stop offset="1" stop-color="#2F80ED"/>
</linearGradient>

</defs>
</svg>

